<?xml version="1.0" encoding="UTF-8" standalone="no"?>
<svg viewBox="0 0 42 42" version="1.1" xmlns="http://www.w3.org/2000/svg" xmlns:xlink="http://www.w3.org/1999/xlink"
 style="enable-background:new 0 0 42 42;" xml:space="preserve" x="0px" y="0px">
    <!-- Generator: Sketch 46.2 (44496) - http://www.bohemiancoding.com/sketch -->
    <title>Page 1</title>
    <desc>Created with Sketch.</desc>
    <defs></defs>
    <g id="Pages" stroke="none" stroke-width="1" fill="none" fill-rule="evenodd">
        <g id="homepage-2" transform="translate(-489.000000, -26.000000)" fill="#FFFFFF">
            <g id="Group-5" transform="translate(36.556773, 23.955727)">
                <g id="Page-1" transform="translate(453.224992, 2.607016)">
                    <polygon id="Fill-1" points="22.0684111 16.1760069 25.5945601 18.0309816 25.6021972 18.0260599 25.7749661 18.1187237 26.6321919 18.5793277 27.1102764 18.8313531 27.6840796 19.1337835 27.6738967 19.1387052 28.965251 19.8319872 29.1410748 19.9266876 29.1410748 20.125253 29.1410748 20.9332617 29.1471845 20.9298674 29.1471845 21.4999369 29.1471845 23.3975098 29.1471845 26.5372199 29.1471845 32.9670067 29.1471845 33.1677784 28.9686453 33.2618 22.8287301 36.5029991 16.5817253 39.8022403 16.4269461 39.8840425 16.2713183 39.8022403 5.5686407 34.1512714 5.01554258 33.8595329 5.56609499 33.5632122 5.6217612 33.5331728 5.62328862 33.5331728 27.1871568 21.9938048 27.1871568 20.9285097 25.7394959 20.1522376 12.5722307 27.1924858 -1.69714058e-05 33.9119745 1.44391023 34.6751787 1.44391023 34.6753484 15.870284 42.2919456 16.4266067 42.5857206 16.9832688 42.2919456 23.942224 38.6172968 30.9018581 34.942648 31.5425287 34.6047473 31.5425287 33.8860083 31.5425287 26.5372199 31.5425287 23.3975098 31.5425287 19.8615174 31.5425287 19.0514722 31.5425287 18.4427079 30.4936958 17.8916463 30.0741627 17.6708483 26.7764488 15.9384072 26.7769579 15.9380678 24.5859495 14.7908008"></polygon>
                    <polygon id="Fill-2" points="16.4265558 0.000101828435 15.8702331 0.293707149 8.91093844 3.96818622 1.95283178 7.64249557 1.31182178 7.98073569 1.31182178 8.69981415 1.31182178 16.0480934 1.31182178 18.6606716 1.31182178 19.1883126 1.31182178 22.7132736 1.31182178 23.3951847 1.31182178 24.1146026 2.77373868 24.8854439 2.78103638 24.8818799 2.92783904 24.9594392 6.07773196 26.6273889 8.21137709 27.7571754 10.7699862 26.3953898 7.07582033 24.444357 7.07632947 24.4436782 7.07378376 24.4428296 7.01251699 24.4099051 7.01234727 24.4105839 5.86236482 23.8031773 5.32046783 23.5170394 5.3345541 23.5092326 3.8823109 22.7295662 3.70631743 22.6353749 3.70631743 22.4363003 3.70631743 21.0726478 3.70631743 19.1883126 3.70631743 18.6606716 3.70631743 18.5683472 3.70631743 16.0480934 3.70631743 9.61881577 3.70631743 9.41855319 3.88502633 9.32385274 10.0247718 6.08197481 16.2714371 2.78358209 16.4265558 2.70177992 16.5816744 2.78358209 22.8286792 6.08197481 27.2646652 8.42436824 27.8196302 8.71712499 27.2658532 9.01242745 24.7335498 10.3631816 5.66074452 20.5816651 5.66074452 21.6330436 7.23297555 22.4763528 17.0176698 17.2136896 20.3452534 15.4249034 23.5978233 13.6761698 26.9376262 11.8792373 32.8762606 8.68555817 31.607648 8.01518764 30.9018072 7.64249557 30.209883 7.27761035 23.9423428 3.96818622 16.9833876 0.293707149"></polygon>
                </g>
            </g>
        </g>
    </g>
</svg>
