<?xml version="1.0" encoding="utf-8"?>
<!-- Generator: Adobe Illustrator 22.1.0, SVG Export Plug-In . SVG Version: 6.00 Build 0)  -->
<svg version="1.1" id="Layer_1" xmlns="http://www.w3.org/2000/svg" xmlns:xlink="http://www.w3.org/1999/xlink" x="0px" y="0px"
	 viewBox="0 -80 1000 600" style="enable-background:new 0 0 1000 600;" xml:space="preserve">
<defs>
    <style>
      .cls-1 {
        fill: #fff;
        fill-rule: evenodd;
      }
    </style>
  </defs>
  <path class="cls-1" d="M411.707,151.849a21.444,21.444,0,0,1,2.122-9.365,23.247,23.247,0,0,1,6.093-7.794,31.266,31.266,0,0,1,9.652-5.4,37.936,37.936,0,0,1,12.938-2.051,35.912,35.912,0,0,1,12.528,2.051,27.366,27.366,0,0,1,9.448,5.743,25.653,25.653,0,0,1,6.024,8.681,27.51,27.51,0,0,1,2.121,10.869l-19.167,1.367q0-5.193-2.875-8.066t-8.079-2.872a10.727,10.727,0,0,0-7.461,2.53,7.514,7.514,0,0,0-2.806,5.674A5.166,5.166,0,0,0,435.393,158a46.419,46.419,0,0,0,7.873,3.076q4.722,1.435,10.2,3.076a40.645,40.645,0,0,1,10.2,4.649,25.647,25.647,0,0,1,7.872,7.929q3.149,4.922,3.149,12.715a22.662,22.662,0,0,1-8.351,17.774,31.581,31.581,0,0,1-10.132,5.469,42.387,42.387,0,0,1-13.692,2.051,40.219,40.219,0,0,1-13.28-2.051,27.7,27.7,0,0,1-9.926-5.811,25.11,25.11,0,0,1-6.161-8.887,29.187,29.187,0,0,1-2.122-11.279l19.168-1.367q0,11.622,12.321,11.621,5.751,0,8.695-2.666a8.159,8.159,0,0,0,2.943-6.221A5.549,5.549,0,0,0,451,183.021a42.436,42.436,0,0,0-7.873-3.282q-4.724-1.5-10.2-3.144a41.984,41.984,0,0,1-10.2-4.58,25.4,25.4,0,0,1-7.873-7.725Q411.706,159.505,411.707,151.849Zm154.15-23.927v86.134h-17.8l-34.913-50.587v50.587H493.293V127.922h17.8l34.913,50.587V127.922h19.852Zm102.958,43.067a43.759,43.759,0,0,1-3.355,17.227,44.945,44.945,0,0,1-9.1,13.876,41.462,41.462,0,0,1-29.984,12.648,41.462,41.462,0,0,1-29.985-12.648,44.927,44.927,0,0,1-9.1-13.876,45.728,45.728,0,0,1,0-34.385,44.75,44.75,0,0,1,9.1-13.946,41.519,41.519,0,0,1,13.486-9.3,42.3,42.3,0,0,1,33,0,41.53,41.53,0,0,1,13.486,9.3,44.768,44.768,0,0,1,9.1,13.946A43.919,43.919,0,0,1,668.815,170.989Zm-19.852,0a26.6,26.6,0,0,0-1.781-9.843,24.272,24.272,0,0,0-4.86-7.794,22.307,22.307,0,0,0-7.188-5.126,21.72,21.72,0,0,0-17.525,0,22.307,22.307,0,0,0-7.188,5.126,24.238,24.238,0,0,0-4.86,7.794,28.108,28.108,0,0,0,0,19.687,24.222,24.222,0,0,0,4.86,7.793,22.31,22.31,0,0,0,7.188,5.127,21.72,21.72,0,0,0,17.525,0,22.31,22.31,0,0,0,7.188-5.127,24.257,24.257,0,0,0,4.86-7.793A26.6,26.6,0,0,0,648.963,170.989Zm91.018-2.734a25.272,25.272,0,0,1,6.846,4.648,25.834,25.834,0,0,1,4.723,6.289,19.543,19.543,0,0,1,2.123,9.571,23.608,23.608,0,0,1-2.054,9.775,23.883,23.883,0,0,1-5.819,8,29.211,29.211,0,0,1-8.9,5.469,30.192,30.192,0,0,1-11.295,2.051h-39.02V127.922h36.966a29.644,29.644,0,0,1,10.816,1.915,25.749,25.749,0,0,1,8.42,5.2,24.261,24.261,0,0,1,5.477,7.587,21.8,21.8,0,0,1,1.985,9.229,16.042,16.042,0,0,1-1.643,7.519,20.53,20.53,0,0,1-3.559,5.059A22.461,22.461,0,0,1,739.981,168.255ZM706.438,162.1H721.5a9.422,9.422,0,0,0,6.846-2.666,8.435,8.435,0,0,0,0-12.441,9.426,9.426,0,0,0-6.846-2.666h-15.06V162.1Zm17.114,35.547a10.736,10.736,0,0,0,7.8-3.075,9.755,9.755,0,0,0,0-14.356,10.733,10.733,0,0,0-7.8-3.076H706.438v20.507h17.114ZM62.6,249.222l50.5,25.212-19.593,9.788L43,259V119L183.2,49l140.2,70Zm241.2-50.445-50.495-25.211,19.593-9.789L323.407,189V329l-140.2,70L43.01,329ZM453.466,301.619q8.215,0,12.938-3.9a18.329,18.329,0,0,0,6.229-9.092L493.171,290a41.4,41.4,0,0,1-4.929,11.758,38.7,38.7,0,0,1-8.489,9.775,41.485,41.485,0,0,1-11.706,6.7,40.642,40.642,0,0,1-14.581,2.529,41.053,41.053,0,0,1-16.5-3.349,41.494,41.494,0,0,1-13.486-9.3,44.927,44.927,0,0,1-9.1-13.876,45.744,45.744,0,0,1,0-34.386,44.746,44.746,0,0,1,9.1-13.945,41.5,41.5,0,0,1,13.486-9.3,41.071,41.071,0,0,1,16.5-3.35,38.79,38.79,0,0,1,14.17,2.529,41.08,41.08,0,0,1,11.5,6.7,39.434,39.434,0,0,1,8.42,9.776,41.4,41.4,0,0,1,4.929,11.757l-20.537,1.368a20.31,20.31,0,0,0-2.328-4.922,16.362,16.362,0,0,0-3.833-4.1,19.782,19.782,0,0,0-5.408-2.871,20.6,20.6,0,0,0-6.914-1.094,21.139,21.139,0,0,0-8.763,1.846,22.31,22.31,0,0,0-7.188,5.127,24.222,24.222,0,0,0-4.86,7.793,28.108,28.108,0,0,0,0,19.687,24.212,24.212,0,0,0,4.86,7.793,22.313,22.313,0,0,0,7.188,5.128A21.138,21.138,0,0,0,453.466,301.619Zm136.4-24.609a43.78,43.78,0,0,1-3.353,17.227,44.984,44.984,0,0,1-9.105,13.876,41.509,41.509,0,0,1-13.487,9.3,42.311,42.311,0,0,1-33,0,41.479,41.479,0,0,1-13.485-9.3,44.894,44.894,0,0,1-9.105-13.876,45.744,45.744,0,0,1,0-34.386,44.713,44.713,0,0,1,9.105-13.945,41.489,41.489,0,0,1,13.485-9.3,42.3,42.3,0,0,1,33,0,41.519,41.519,0,0,1,13.487,9.3,44.8,44.8,0,0,1,9.105,13.945A43.941,43.941,0,0,1,589.871,277.01Zm-19.852,0a26.624,26.624,0,0,0-1.78-9.844,24.225,24.225,0,0,0-4.861-7.793,22.285,22.285,0,0,0-7.187-5.127,21.72,21.72,0,0,0-17.525,0,22.31,22.31,0,0,0-7.188,5.127,24.205,24.205,0,0,0-4.86,7.793,28.108,28.108,0,0,0,0,19.687,24.2,24.2,0,0,0,4.86,7.793,22.313,22.313,0,0,0,7.188,5.128,21.73,21.73,0,0,0,17.525,0,22.288,22.288,0,0,0,7.187-5.128,24.214,24.214,0,0,0,4.861-7.793A26.619,26.619,0,0,0,570.019,277.01Zm37.623-43.067H667.2v19.141H627.5v17.773h32.174V290H627.5v30.078H607.642V233.943Zm76.04,0h59.557v19.141h-39.7v17.773h32.174V290H703.535v30.078H683.682V233.943Zm76.04,0h61.611v19.141H779.575v13.671H817.91V285.9H779.575v15.039H822.7v19.14h-62.98V233.943Zm83.3,0h61.611v19.141H862.872v13.671h38.335V285.9H862.872v15.039H906v19.14H843.02V233.943Z"/>
</svg>
