<svg xmlns="http://www.w3.org/2000/svg" viewBox="0 0 161.01 21.28"><defs><style>.cls-1{fill:#fff;}</style></defs><title>cms</title><g id="Layer_2" data-name="Layer 2"><g id="Layer_1-2" data-name="Layer 1"><path class="cls-1" d="M.16,6A5.16,5.16,0,0,1,.67,3.75,5.58,5.58,0,0,1,2.14,1.88,7.5,7.5,0,0,1,4.45.58,9.09,9.09,0,0,1,7.56.09a8.61,8.61,0,0,1,3,.49A6.56,6.56,0,0,1,12.83,2,6.16,6.16,0,0,1,14.27,4a6.62,6.62,0,0,1,.51,2.61L10.18,7a2.62,2.62,0,0,0-.69-1.94,2.62,2.62,0,0,0-1.94-.69A2.57,2.57,0,0,0,5.76,5a1.81,1.81,0,0,0-.67,1.36,1.24,1.24,0,0,0,.76,1.15,11.14,11.14,0,0,0,1.89.74L10.18,9a9.74,9.74,0,0,1,2.45,1.12A6.16,6.16,0,0,1,14.52,12,5.59,5.59,0,0,1,15.27,15a5.45,5.45,0,0,1-2,4.27,7.57,7.57,0,0,1-2.43,1.31,10.16,10.16,0,0,1-3.28.49,9.64,9.64,0,0,1-3.19-.49A6.64,6.64,0,0,1,2,19.22,6,6,0,0,1,.51,17.09,7,7,0,0,1,0,14.38l4.6-.33q0,2.79,3,2.79a3,3,0,0,0,2.09-.64,2,2,0,0,0,.71-1.49,1.33,1.33,0,0,0-.76-1.22A10.17,10.17,0,0,0,7.7,12.7l-2.45-.76a10.06,10.06,0,0,1-2.45-1.1A6.1,6.1,0,0,1,.92,9,5.35,5.35,0,0,1,.16,6Z"/><path class="cls-1" d="M37.15.25V20.95H32.88L24.5,8.8V20.95H19.74V.25H24l8.38,12.15V.25Z"/><path class="cls-1" d="M61.85,10.6a10.53,10.53,0,0,1-.8,4.14,10.8,10.8,0,0,1-2.18,3.33,10,10,0,0,1-3.24,2.23,10.14,10.14,0,0,1-7.92,0,10,10,0,0,1-3.24-2.23,10.79,10.79,0,0,1-2.18-3.33,10.52,10.52,0,0,1-.8-4.14,10.56,10.56,0,0,1,.8-4.12,10.75,10.75,0,0,1,2.18-3.35A10,10,0,0,1,47.71.9a10.14,10.14,0,0,1,7.92,0,10,10,0,0,1,3.24,2.23A10.76,10.76,0,0,1,61,6.48,10.57,10.57,0,0,1,61.85,10.6Zm-4.76,0a6.4,6.4,0,0,0-.43-2.37,5.83,5.83,0,0,0-1.17-1.87,5.35,5.35,0,0,0-1.72-1.23,5.2,5.2,0,0,0-4.2,0,5.35,5.35,0,0,0-1.72,1.23,5.82,5.82,0,0,0-1.17,1.87,6.39,6.39,0,0,0-.43,2.37A6.39,6.39,0,0,0,46.67,13a5.82,5.82,0,0,0,1.17,1.87,5.35,5.35,0,0,0,1.72,1.23,5.21,5.21,0,0,0,4.2,0,5.35,5.35,0,0,0,1.72-1.23A5.83,5.83,0,0,0,56.66,13,6.4,6.4,0,0,0,57.09,10.6Z"/><path class="cls-1" d="M78.93,9.95a6.06,6.06,0,0,1,1.64,1.12,6.21,6.21,0,0,1,1.13,1.51,4.7,4.7,0,0,1,.51,2.3,5.68,5.68,0,0,1-.49,2.35,5.74,5.74,0,0,1-1.4,1.92,7,7,0,0,1-2.14,1.31,7.23,7.23,0,0,1-2.71.49H66.11V.25H75a7.11,7.11,0,0,1,2.6.46A6.18,6.18,0,0,1,79.6,2a5.83,5.83,0,0,1,1.31,1.82A5.24,5.24,0,0,1,81.39,6,3.86,3.86,0,0,1,81,7.81,4.93,4.93,0,0,1,80.14,9,5.38,5.38,0,0,1,78.93,9.95Zm-8-1.48h3.61a2.26,2.26,0,0,0,1.64-.64,2,2,0,0,0,0-3,2.26,2.26,0,0,0-1.64-.64H70.88ZM75,17a2.57,2.57,0,0,0,1.87-.74,2.35,2.35,0,0,0,0-3.45A2.57,2.57,0,0,0,75,12.08H70.88V17Z"/><path class="cls-1" d="M110,13.47l5,.33a9.76,9.76,0,0,1-9.64,7.48A10.43,10.43,0,0,1,95,10.64,10.43,10.43,0,0,1,105.33,0a9.71,9.71,0,0,1,9.48,7.48l-5,.33a4.45,4.45,0,0,0-4.49-3.16,5.66,5.66,0,0,0-5.49,6,5.66,5.66,0,0,0,5.49,6A4.52,4.52,0,0,0,110,13.47Z"/><path class="cls-1" d="M141.23.17V21.11h-4.82V10.64l-4.82,10.47h-3l-4.82-10.47V21.11H119V.17h4.32L130.09,15,136.91.17Z"/><path class="cls-1" d="M153.19,0c4.49,0,7.31,2.83,7.31,6.65L155.85,7a2.45,2.45,0,0,0-2.66-2.66,2.28,2.28,0,0,0-2.49,2c0,3,10.31,1.16,10.31,8.81,0,3.32-2.83,6.15-7.81,6.15-4.82,0-7.65-2.83-7.65-6.82l4.65-.33c0,1.83,1,2.83,3,2.83C155,17,156,16,156,14.8c0-3.16-10.31-1.33-10.31-8.81C145.71,2.83,148.54,0,153.19,0Z"/></g></g></svg>
